# xmcd
#
# Track frame offsets:
# 150
# 18824
# 34561
# 47447
# 64215
# 78107
# 97773
# 110402
# 122668
# 137842
# 153030
# 165053
# 181601
# 192115
# 208478
# 229700
#
# Disc length: 3311 seconds
#
#
# Revision: 7
# Processed by: cddbd v1.5.2PL0 Copyright (c) Steve Scherf et al.
# Submitted via: FreeRIP 2.951 
#
DISCID=b30ced10
DTITLE=Daniel - Meu Reino Encantado III
DYEAR=2005
DGENRE=Sertanejo
TTITLE0=Desatino
TTITLE1=Jeitão De Cabloco
TTITLE2=Proposta
TTITLE3=Pescador E Catireiro
TTITLE4=Mercedita
TTITLE5=Sertanejo De Coração
TTITLE6=Mala Amarela
TTITLE7=Gente De Minha Terra
TTITLE8=A Volta Do Boiadeiro
TTITLE9=Poeira
TTITLE10=Na Barba Do Leão
TTITLE11=O Último Dos Carreiros
TTITLE12=Bica D'água
TTITLE13=A Vida De Pescador
TTITLE14=Dia De Visita
TTITLE15=Desatino
EXTD=www.somlivre.com\n\n++++++++++++++\nBy \n\nwww.ricardo.rg3.net\n\n+++++++++++++++\nDenuncie a Pirataria\ndenuncia@apdif.org.br
EXTT0=(Part. Esp. Rio Negro and Solimões)
EXTT1=(Part. Esp. José Camilo)
EXTT2=(Part. Esp. Zé Henrique and Gabriel)
EXTT3=(Part. Esp. Abel and Caim)
EXTT4=(Part. Esp. Perla)
EXTT5=(Part. Esp. Bruno and Marrone)
EXTT6=(Part. Esp. José Camilo)
EXTT7=(Part. Esp. Amaraí and Francis Jr.)
EXTT8=(Part. Esp. Lourenço and Lourival)
EXTT9=(Part. Esp. Duo Glacial)
EXTT10=(Part. Esp. Os Filhos De Gaiás)
EXTT11=(Part. Esp. André and Andrade)
EXTT12=(Part. Esp. Raul Gil)
EXTT13=(Part. Esp. Ataíde and Alexandre)
EXTT14=(Part. Esp. Moacyr Franco)
EXTT15=
PLAYORDER=
